<svg id="logo" xmlns="http://www.w3.org/2000/svg" viewBox="0 0 661.57 179.59">
  <g>
    <polygon class="cls-1" points="630.76 67.89 560.42 67.89 608.72 114.68 592.56 130.84 484.88 130.84 456.7 179.59 612.83 179.59 661.57 130.84 661.57 97.75 630.76 67.89" />
    <polygon class="cls-1" points="661.57 48.74 661.57 0 524.05 0 475.31 48.74 475.31 81.84 506.12 111.7 576.46 111.7 569.21 104.67 528.16 64.91 544.32 48.74 661.57 48.74" />
  </g>
  <polygon class="cls-1" points="85.95 0 57.85 48.74 137.51 48.74 137.51 130.84 66.96 130.84 77.86 111.7 21.54 111.7 10.77 130.38 0 149.05 0 179.59 186.26 179.59 186.26 0 85.95 0" />
  <g>
    <polygon class="cls-1" points="322.72 0 322.74 27.84 263.38 130.84 216.27 130.84 216.27 179.59 290.83 179.59 371.46 40.15 371.46 0 322.72 0" />
    <polygon class="cls-1" points="236.79 0 216.27 35.66 216.27 111.7 253.07 111.7 265.01 91.03 265.01 49 292.72 0 236.79 0" />
  </g>
  <polygon class="cls-1" points="402.55 0 402.55 69.52 366.84 130.84 340.59 130.84 329.22 150.56 317.84 170.29 317.84 170.35 317.79 170.38 312.48 179.59 394.81 179.59 451.3 81.85 451.3 0 402.55 0" />
</svg>
